<?xml version="1.0" standalone="no"?>
<!DOCTYPE svg PUBLIC "-//W3C//DTD SVG 20010904//EN"
 "http://www.w3.org/TR/2001/REC-SVG-20010904/DTD/svg10.dtd">
<svg version="1.0" xmlns="http://www.w3.org/2000/svg"
 width="1080.000000pt" height="1080.000000pt" viewBox="0 0 1080.000000 1080.000000"
 preserveAspectRatio="xMidYMid meet">
<metadata>
Created by potrace 1.14, written by Peter Selinger 2001-2017
</metadata>
<g transform="translate(0.000000,1080.000000) scale(0.100000,-0.100000)"
fill="#000000" stroke="none">
<path d="M0 5400 l0 -5400 5400 0 5400 0 0 5400 0 5400 -5400 0 -5400 0 0
-5400z m3636 3041 c34 -10 85 -31 113 -47 67 -36 179 -154 213 -224 73 -151
59 -352 -36 -513 -69 -119 -219 -243 -360 -298 -74 -30 -93 -33 -216 -37 -126
-4 -141 -2 -213 22 -100 34 -168 77 -237 152 -98 107 -137 216 -127 364 10
159 74 286 203 409 108 103 230 166 372 191 69 13 218 3 288 -19z m141 -1678
c-3 -10 -157 -935 -343 -2055 l-339 -2038 -567 0 c-498 0 -568 2 -568 15 0 16
666 4035 675 4073 l5 22 571 0 c538 0 570 -1 566 -17z m3453 -38 c0 -9 -49
-316 -110 -682 -60 -366 -110 -672 -110 -679 0 -12 115 -14 695 -14 382 0 695
-2 695 -5 0 -9 -150 -908 -155 -932 l-5 -23 -697 -2 -697 -3 -17 -100 c-9 -55
-60 -369 -114 -697 l-99 -598 -478 0 c-263 0 -478 2 -478 5 0 4 209 1270 225
1363 l6 32 -696 0 c-655 0 -695 1 -694 18 0 9 35 224 77 477 l78 460 696 3
695 2 112 683 c62 375 114 688 116 695 4 9 108 12 480 12 421 0 475 -2 475
-15z"/>
</g>
</svg>
