<svg width="27" height="40" viewBox="0 0 27 40" fill="none" xmlns="http://www.w3.org/2000/svg">
<g clip-path="url(#clip0_458_2290)">
<path d="M7.10777 14.3784C6.67659 14.3784 6.35387 14.0494 6.35387 13.6133C6.35387 9.6489 9.54139 6.42547 13.4616 6.42547C13.8743 6.42547 14.2182 6.7759 14.2182 7.18786C14.2182 7.62389 13.8928 7.95292 13.4616 7.95292C11.9618 7.95292 10.5545 8.54143 9.49907 9.60342C8.44626 10.6708 7.86695 12.0939 7.86695 13.6106C7.86695 14.0467 7.54159 14.3757 7.11041 14.3757M16.628 29.8321C16.6518 29.6529 16.6835 29.4951 16.7285 29.3533L16.7338 29.3399C17.0645 28.2432 18.3897 24.3857 21.5508 20.737C23.2438 18.8136 24.1775 16.2964 24.1775 13.6481C24.1775 7.69611 19.3896 2.84893 13.4987 2.84893C10.6894 2.84893 8.0336 3.94302 6.01793 5.92523C3.95728 7.95292 2.81983 10.6975 2.81983 13.6481C2.81983 16.2536 3.7536 18.7708 5.4492 20.737C8.61027 24.3831 9.93818 28.2432 10.2662 29.3399V29.3533C10.3165 29.4924 10.3482 29.6342 10.372 29.792H7.48075C6.54433 26.9779 4.46517 23.9096 3.32507 22.5854C1.18242 20.095 0 16.909 0 13.6133C0 10.101 1.38082 6.6368 3.79328 4.1062C6.3142 1.46058 9.75037 0 13.4616 0C17.1729 0 20.4292 1.42045 22.9845 3.9992C25.5398 6.57527 26.9656 10.0047 27.0026 13.6588C27.0026 16.9491 25.8229 20.1324 23.6776 22.6282C22.4502 24.054 20.3922 27.0902 19.514 29.8348H16.6306L16.628 29.8321ZM10.327 39.9973C10.0572 39.9973 9.82179 39.8796 9.68424 39.6683L7.75585 36.7257C7.66856 36.5438 7.62624 36.3914 7.62624 36.263V33.3284H19.2997V36.263C19.2997 36.4261 19.26 36.5706 19.1833 36.7097L17.2417 39.6683C17.1041 39.8796 16.8687 39.9973 16.5989 39.9973H10.327Z" fill="white"/>
</g>
<defs>
<clipPath id="clip0_458_2290">
<rect width="27" height="40" fill="white"/>
</clipPath>
</defs>
</svg>
