<svg width="23" height="36" viewBox="0 0 23 36" fill="none" xmlns="http://www.w3.org/2000/svg">
<g clip-path="url(#clip0_458_2292)">
<path d="M17.9393 24.7162C17.9393 26.7336 16.4363 28.0378 13.6896 28.3322V20.6841C16.9961 21.6483 17.9393 22.7826 17.9393 24.6325V24.7162ZM10.2977 14.8401C6.9964 13.8302 6.18015 12.6959 6.18015 10.9323V10.8917C6.18015 9.03932 7.55352 7.65383 10.2977 7.40008V14.8401ZM13.6896 15.7232V7.65383C15.6642 8.07252 17.6387 9.03932 19.5251 10.3868L21.9272 6.43581C19.5251 4.71283 16.9494 3.61915 13.8606 3.2436V0.71875H10.1266V3.15732C4.76014 3.61661 1.11424 6.68449 1.11424 11.181V11.2647C1.11424 16.015 4.032 18.2836 10.2977 19.8822V28.1622C7.50946 27.6978 5.19029 26.4392 2.74673 24.465L0 28.3322C2.8737 30.6008 6.39263 32.07 10.1266 32.4912V34.0087H13.8606V32.5775C19.3101 32.0725 23 29.0046 23 24.4244V24.3407C23 19.8441 20.2118 17.3244 13.6896 15.7257" fill="white"/>
<path d="M13.7517 36H10.3416C9.99177 36 9.71191 35.7234 9.71191 35.3859V0.614083C9.71191 0.276591 9.99436 0 10.3416 0H13.7517C14.1015 0 14.3788 0.276591 14.3788 0.614083V35.3859C14.3788 35.7234 14.1015 36 13.7517 36Z" fill="white"/>
</g>
<defs>
<clipPath id="clip0_458_2292">
<rect width="23" height="36" fill="white"/>
</clipPath>
</defs>
</svg>
