<svg width="39" height="33" viewBox="0 0 39 33" fill="none" xmlns="http://www.w3.org/2000/svg">
<path d="M27.5083 6.50565H24.6197C24.6197 4.13166 22.896 2.92691 19.4988 2.92691C16.1016 2.92691 14.383 4.13166 14.383 6.50565H11.4944C11.4919 2.42979 14.4832 0 19.4988 0C24.5144 0 27.5083 2.42979 27.5083 6.50565Z" fill="white"/>
<path d="M37.4167 6.42188H1.58335C0.709 6.42188 0 7.13965 0 8.02483V14.32C0.926961 14.8145 2.15957 15.408 3.66024 15.999C6.4311 17.0922 10.63 18.3552 15.846 18.7484V17.678C15.846 16.6686 16.6577 15.8494 17.6523 15.8494H21.3452C22.3423 15.8494 23.1515 16.6711 23.1515 17.678V18.69C30.4895 18.0179 36.1415 15.6642 38.9975 14.2337V8.02483C38.9975 7.13965 38.2885 6.42188 37.4141 6.42188" fill="white"/>
<path d="M23.154 21.9119C23.154 22.9213 22.3423 23.7406 21.3477 23.7406H17.6498C16.6527 23.7406 15.8435 22.9188 15.8435 21.9119V20.5879C8.61072 20.073 3.15417 17.9578 0 16.3852V31.4383C0 32.3032 0.688957 33.0006 1.54076 33.0006H37.4567C38.311 33.0006 39 32.3032 39 31.4383V16.2812C35.8032 17.8056 30.264 19.9183 23.154 20.5321V21.9144V21.9119Z" fill="white"/>
</svg>
