<svg width="24" height="41" viewBox="0 0 24 41" fill="none" xmlns="http://www.w3.org/2000/svg">
<path d="M20.9177 0H3.07678C1.37934 0 0 1.3397 0 2.98712V38.0182C0 39.6656 1.37934 41 3.08227 41H20.915C22.6207 41 24 39.663 24 38.0155V2.98712C24 1.3397 22.6207 0 20.9177 0ZM21.5841 36.7262C21.5841 37.6415 20.8218 38.3816 19.8729 38.3816H4.29982C3.35375 38.3816 2.58592 37.6415 2.58592 36.7262V4.27111C2.58592 3.35587 3.35375 2.61572 4.29982 2.61572H6.95704C6.98172 3.72993 7.91408 4.62659 9.07404 4.62659H15.096C16.2532 4.62659 17.1883 3.72993 17.213 2.61572H19.8757C20.8245 2.61572 21.5868 3.35587 21.5868 4.27111V36.7262H21.5841Z" fill="white"/>
</svg>
