<svg width="39" height="39" viewBox="0 0 39 39" fill="none" xmlns="http://www.w3.org/2000/svg">
<g clip-path="url(#clip0_458_2295)">
<path d="M13.2719 35.2127C11.7089 34.5932 10.2375 33.7437 8.92546 32.693C8.70069 32.51 8.4733 32.3166 8.25376 32.1206C8.15444 32.0291 8.05252 31.9376 7.95581 31.8461C8.78432 31.4436 9.64681 31.1038 10.5276 30.8189C10.5799 30.8006 10.6321 30.7823 10.6818 30.7666C10.7079 30.7614 10.7184 30.7536 10.7262 30.7536C10.7341 30.7536 10.7393 30.7588 10.7524 30.7849C10.7916 30.8843 10.8334 30.981 10.8726 31.0777C10.9588 31.292 11.0555 31.4985 11.1496 31.7076C11.3326 32.1101 11.5312 32.5074 11.7403 32.8942C12.182 33.7071 12.689 34.486 13.2692 35.2074M25.7204 35.2074C26.7893 33.8796 27.5996 32.361 28.2373 30.7849L28.2608 30.7327C28.3209 30.751 28.3836 30.7719 28.449 30.7902C28.5718 30.832 28.6947 30.8712 28.8201 30.913C29.0789 30.9993 29.3376 31.0934 29.5911 31.1927C30.0877 31.3835 30.5791 31.59 31.0573 31.8226C31.0051 31.8723 30.9606 31.9141 30.911 31.9585C29.6747 33.0981 28.2634 34.0443 26.7475 34.7605C26.4078 34.9199 26.0654 35.0715 25.7204 35.2048M19.5 36.0308C19.0139 36.0308 18.5278 35.9367 18.06 35.7589C17.2105 35.4374 16.4761 34.865 15.8567 34.2168C15.3209 33.6627 14.84 33.0171 14.4297 32.3506C13.9854 31.6318 13.6038 30.8686 13.2745 30.0871C15.0883 29.7107 16.9413 29.5225 18.7891 29.478C19.0374 29.4754 19.2883 29.4728 19.5419 29.4728C21.1623 29.4728 22.7879 29.5957 24.3901 29.8414C24.8344 29.9119 25.2787 29.993 25.7204 30.0766C25.6969 30.1263 25.6786 30.1759 25.6603 30.223C25.0095 31.7337 24.1496 33.2183 22.984 34.3736C22.3384 35.0088 21.5805 35.5577 20.7154 35.84C20.3155 35.968 19.9051 36.0334 19.5027 36.0334M6.14459 29.8466C6.14459 29.8466 6.13153 29.8414 6.11846 29.8309C6.08971 29.7891 6.05835 29.7473 6.02698 29.7054C5.95642 29.6192 5.89108 29.5277 5.82312 29.4336C5.56699 29.0808 5.32654 28.7227 5.09654 28.3515C4.63917 27.6066 4.23929 26.8225 3.90213 26.0122C3.20953 24.3603 2.77045 22.5855 2.63977 20.7951H8.73728C8.76341 20.7951 8.75034 20.8526 8.75034 20.8761C8.75557 20.9912 8.7608 21.1114 8.76603 21.229C8.78955 21.6916 8.82091 22.1543 8.86273 22.6169C8.94375 23.537 9.06397 24.4544 9.22079 25.3614C9.38022 26.2396 9.57362 27.11 9.80885 27.9751C9.8376 28.0797 9.86635 28.1816 9.90032 28.2862C9.78794 28.3228 9.67817 28.3567 9.56578 28.3933C9.34886 28.4665 9.13716 28.5423 8.92284 28.6181C8.48376 28.7776 8.05252 28.9475 7.6265 29.1356C7.38082 29.2428 7.14037 29.3526 6.89731 29.465C6.68822 29.5695 6.47391 29.6741 6.26482 29.7839C6.23868 29.7995 6.21255 29.8126 6.18641 29.8257C6.16812 29.8361 6.15505 29.8492 6.14459 29.8492M12.412 27.6223C12.3937 27.5622 12.3728 27.4968 12.3571 27.4341C12.297 27.2119 12.2343 26.9845 12.1794 26.7597C11.7351 24.9902 11.4789 23.1763 11.377 21.3571C11.3665 21.1741 11.3587 20.9859 11.3509 20.7977H27.644C27.5708 22.6352 27.346 24.4675 26.9383 26.2579C26.8338 26.7022 26.7214 27.1466 26.5959 27.5805C26.5907 27.5987 26.5855 27.6066 26.5829 27.6066C26.5776 27.6066 26.5672 27.604 26.5515 27.6014C26.5254 27.5961 26.4992 27.5883 26.4731 27.5857C26.4208 27.5726 26.3659 27.5622 26.3137 27.5491C26.2013 27.5256 26.0837 27.5047 25.9687 27.4811C25.7465 27.4367 25.527 27.3975 25.3074 27.3583C24.4005 27.2041 23.4884 27.0865 22.571 27.0107C21.5596 26.9192 20.5429 26.8774 19.5314 26.8774C18.6741 26.8774 17.8117 26.9087 16.9518 26.9714C16.0318 27.0368 15.1144 27.1413 14.2023 27.2851C13.758 27.3557 13.3111 27.4341 12.872 27.523C12.7648 27.5412 12.6577 27.5648 12.5531 27.5883C12.5035 27.5988 12.459 27.6066 12.4146 27.6197M32.8659 29.8283C32.8659 29.8283 32.8476 29.8231 32.8294 29.81C32.8058 29.7995 32.7849 29.7865 32.7614 29.7786C32.7065 29.7473 32.649 29.7211 32.5941 29.6872C32.3798 29.58 32.1681 29.478 31.9538 29.3761C31.1253 28.9867 30.2733 28.6521 29.4029 28.3646C29.2984 28.3358 29.1991 28.3045 29.0971 28.2705C29.1337 28.1581 29.1625 28.0457 29.1912 27.9307C29.2514 27.7164 29.3062 27.5047 29.3585 27.2851C29.4683 26.8564 29.5624 26.4226 29.6486 25.9887C29.829 25.0948 29.9649 24.1904 30.0616 23.2808C30.1138 22.8156 30.1557 22.3503 30.187 21.8824C30.2027 21.6577 30.2132 21.4277 30.2262 21.2003C30.2288 21.0905 30.2367 20.9833 30.2393 20.8735C30.2419 20.85 30.2262 20.7925 30.255 20.7925H36.3472V20.85C36.1983 22.6744 35.7461 24.4675 35.0274 26.1507C34.685 26.9532 34.2747 27.7347 33.8094 28.477C33.5768 28.8455 33.3312 29.2062 33.0724 29.5591C33.0123 29.6401 32.947 29.7237 32.8816 29.8074C32.8712 29.8205 32.8659 29.8231 32.8581 29.8231M19.5 12.12C20.3495 12.12 21.1989 12.0887 22.0431 12.0259C22.9657 11.9606 23.8856 11.8587 24.7952 11.7149C25.2447 11.6469 25.6864 11.5685 26.1281 11.477C26.2353 11.4587 26.3424 11.4352 26.4444 11.4117C26.494 11.4012 26.5411 11.3934 26.5855 11.3829C26.6012 11.4431 26.6247 11.5058 26.6404 11.5711C26.7005 11.7907 26.7632 12.0155 26.8207 12.2455C27.2598 14.0202 27.5185 15.842 27.6179 17.6691C27.6309 17.8468 27.6362 18.0245 27.644 18.2023H11.3535C11.4214 16.3622 11.654 14.5247 12.0644 12.7317C12.1689 12.2899 12.2787 11.8508 12.4041 11.4117C12.4146 11.3934 12.4172 11.3856 12.4198 11.3856C12.4251 11.3856 12.4355 11.3908 12.4486 11.3908C12.4747 11.396 12.5008 11.4039 12.5296 11.4091C12.5819 11.4195 12.6368 11.4274 12.689 11.4405C12.8014 11.4666 12.9138 11.4901 13.034 11.5084C13.2536 11.5502 13.4731 11.5921 13.6953 11.6313C14.6022 11.7907 15.5117 11.9057 16.4291 11.9867C17.4484 12.073 18.4755 12.12 19.5027 12.12M2.645 18.1996V18.1395C2.79658 16.3204 3.24612 14.5299 3.96225 12.8519C4.30724 12.0442 4.71496 11.2679 5.18018 10.5256C5.41017 10.1545 5.65585 9.79639 5.91198 9.44354C5.97732 9.35989 6.03744 9.27887 6.10016 9.19523C6.11846 9.17693 6.11846 9.15864 6.13675 9.15864C6.13937 9.15864 6.14982 9.15864 6.16028 9.16909C6.18641 9.17955 6.21255 9.19523 6.23868 9.2083C6.29618 9.23705 6.35891 9.26841 6.41641 9.29978C6.62549 9.40956 6.83981 9.51672 7.05674 9.61604C7.89047 10.0055 8.75034 10.3427 9.62851 10.6302C9.67817 10.6459 9.72783 10.6615 9.7801 10.6798C9.80623 10.6903 9.82976 10.6955 9.85067 10.706C9.88726 10.7164 9.90816 10.706 9.8951 10.7478C9.86635 10.8576 9.82976 10.97 9.80362 11.0824C9.74351 11.2967 9.68862 11.511 9.63374 11.7306C9.52658 12.1592 9.42988 12.5931 9.34886 13.027C9.16852 13.9235 9.03261 14.8305 8.9333 15.7375C8.88364 16.2053 8.84182 16.6706 8.81046 17.1385C8.79478 17.3685 8.78171 17.5933 8.77125 17.8207C8.76864 17.9278 8.7608 18.0376 8.75818 18.1474C8.75557 18.1787 8.77125 18.2023 8.73205 18.2023H2.645V18.1996ZM30.2602 18.1996C30.2314 18.1996 30.2471 18.1395 30.2445 18.116C30.2419 18.001 30.2341 17.8834 30.2314 17.7684C30.2079 17.3031 30.1739 16.8431 30.1321 16.3805C30.0537 15.4604 29.9361 14.5482 29.7741 13.6412C29.6146 12.763 29.4265 11.8874 29.1886 11.0301C29.1599 10.9255 29.1311 10.8236 29.1024 10.7191C29.2121 10.6825 29.3219 10.6485 29.4317 10.6119C29.6512 10.5387 29.8629 10.4629 30.0772 10.3897C30.5163 10.2303 30.9476 10.0578 31.3788 9.87219C31.6245 9.76503 31.8702 9.65525 32.108 9.53763C32.3223 9.43831 32.5314 9.33376 32.7431 9.22136C32.7666 9.2083 32.7928 9.19523 32.8163 9.17954C32.8346 9.16909 32.845 9.15602 32.8607 9.15602C32.8633 9.15602 32.8738 9.16125 32.879 9.17432C32.9156 9.21614 32.9444 9.25534 32.9783 9.29716C33.0437 9.38865 33.1116 9.47751 33.1796 9.57161C33.4357 9.92447 33.6762 10.2852 33.9035 10.6563C34.3609 11.4039 34.7608 12.1854 35.0979 13.0009C35.7906 14.6528 36.2218 16.4118 36.3525 18.1996H30.2602ZM10.7262 8.24904C10.7262 8.24904 10.7027 8.24643 10.6818 8.23859C10.6217 8.22029 10.5616 8.19938 10.5015 8.18109C10.376 8.14188 10.2505 8.09745 10.1251 8.05563C9.87942 7.96937 9.62851 7.8805 9.38545 7.78118C8.89932 7.59822 8.42103 7.3865 7.9532 7.16433C7.99763 7.11467 8.0499 7.06762 8.09433 7.02319C9.33317 5.8862 10.7471 4.94263 12.2709 4.22123C12.6002 4.06702 12.9347 3.92065 13.2745 3.78996C12.2055 5.11775 11.4005 6.63374 10.7576 8.20984C10.7445 8.2412 10.7419 8.25166 10.7288 8.25166M28.2765 8.25427C28.2765 8.25427 28.2608 8.24382 28.2477 8.21768C28.2111 8.1262 28.1772 8.03994 28.1406 7.95108C28.0491 7.74459 27.9602 7.53026 27.8635 7.32377C27.6806 6.91602 27.4819 6.52135 27.2702 6.12928C26.8259 5.30594 26.3137 4.51659 25.7282 3.78996C27.2964 4.40942 28.7678 5.2589 30.0825 6.31747C30.3151 6.50043 30.5372 6.69124 30.7568 6.88989C30.8561 6.98137 30.9528 7.07024 31.0547 7.16695C30.221 7.56685 29.3611 7.90403 28.4803 8.18893C28.4255 8.20461 28.3732 8.22029 28.3209 8.2412C28.2974 8.24643 28.2843 8.25427 28.2791 8.25427M19.4739 9.51933C17.843 9.51933 16.2148 9.3991 14.61 9.14818C14.1657 9.08022 13.7214 8.99919 13.2797 8.91294C13.3032 8.86067 13.3215 8.81623 13.345 8.76657C14.001 7.25059 14.8557 5.76074 16.0344 4.60284C16.6669 3.98077 17.4118 3.44494 18.2586 3.16266C18.6663 3.02935 19.0845 2.9614 19.5 2.9614C19.9757 2.9614 20.4514 3.04765 20.9062 3.22016C21.7582 3.53642 22.4978 4.10884 23.1199 4.75444C23.6739 5.32947 24.1522 5.96723 24.5678 6.64681C25.0121 7.36559 25.3911 8.12881 25.723 8.91294C23.9092 9.28409 22.0535 9.4749 20.2031 9.51411C19.9574 9.51672 19.7117 9.51933 19.4713 9.51933M19.5 0C17.6287 0 15.7574 0.266604 13.954 0.799812C12.2761 1.29643 10.6661 2.02305 9.18159 2.95356C7.78332 3.82394 6.49743 4.87729 5.36052 6.07439C4.12429 7.37866 3.06578 8.85282 2.22943 10.442C1.3774 12.0625 0.760597 13.7981 0.397308 15.5911C0.0157238 17.4521 -0.0914334 19.3732 0.07845 21.2708C0.24572 23.124 0.679576 24.9562 1.36695 26.6865C2.0308 28.3541 2.92465 29.9328 4.01974 31.36C5.09654 32.7609 6.36414 34.0208 7.77286 35.0846C9.12931 36.1039 10.6164 36.943 12.1924 37.5833C13.9279 38.2891 15.7783 38.736 17.647 38.9137C18.2638 38.9739 18.8832 39 19.5027 39C20.7441 39 21.9856 38.885 23.2087 38.6471C24.9912 38.3047 26.7266 37.7088 28.3497 36.8828C29.8577 36.1118 31.2664 35.1473 32.5262 34.0129C33.8042 32.8629 34.9307 31.5482 35.8637 30.108C36.8543 28.5841 37.6279 26.9192 38.1585 25.1836C38.7047 23.3801 38.987 21.4982 39 19.6189C39.0053 18.3016 38.8798 16.9895 38.6263 15.6983C38.2708 13.9105 37.6671 12.1697 36.8281 10.5544C36.0049 8.95999 34.9594 7.48583 33.7363 6.17371C32.5837 4.94524 31.2717 3.86315 29.842 2.96924C28.3601 2.03874 26.7475 1.3095 25.0722 0.810267C23.2636 0.274445 21.3871 0.00261377 19.5027 0.00261377" fill="white"/>
</g>
<defs>
<clipPath id="clip0_458_2295">
<rect width="39" height="39" fill="white"/>
</clipPath>
</defs>
</svg>
